<?xml version="1.0" encoding="UTF-8"?>
<svg xmlns="http://www.w3.org/2000/svg" width="24" height="24" viewBox="0 0 24 24" fill="none" stroke-width="1.5" stroke-linecap="round" stroke-linejoin="round">
  <defs>
    <linearGradient id="emeraldToSky" x1="0%" y1="0%" x2="100%" y2="100%">
      <stop offset="0%" style="stop-color:#10b981;stop-opacity:1" />
      <stop offset="100%" style="stop-color:#0ea5e9;stop-opacity:1" />
    </linearGradient>
  </defs>
  <path d="m21.64 3.64-1.28-1.28a1.21 1.21 0 0 0-1.72 0L2.36 18.64a1.21 1.21 0 0 0 0 1.72l1.28 1.28a1.2 1.2 0 0 0 1.72 0L21.64 5.36a1.2 1.2 0 0 0 0-1.72" stroke="url(#emeraldToSky)"/>
  <path d="m14 7 3 3" stroke="url(#emeraldToSky)"/>
  <path d="M5 6v4" stroke="url(#emeraldToSky)"/>
  <path d="M19 14v4" stroke="url(#emeraldToSky)"/>
  <path d="M10 2v2" stroke="url(#emeraldToSky)"/>
  <path d="M7 8H3" stroke="url(#emeraldToSky)"/>
  <path d="M21 16h-4" stroke="url(#emeraldToSky)"/>
  <path d="M11 3H9" stroke="url(#emeraldToSky)"/>
</svg>